<?xml version="1.0" encoding="utf-8"?>
<svg width="1022px" height="360px" viewbox="0 0 1022 360" version="1.1" xmlns:xlink="http://www.w3.org/1999/xlink" xmlns="http://www.w3.org/2000/svg">
  <defs>
    <path d="M0 0L302.185 0L302.185 302.185L0 302.185L0 0Z" id="path_1" />
    <path d="M0 0L301.614 0L301.614 301.614L0 301.614L0 0Z" id="path_2" />
    <path d="M0 0L284.638 0L284.638 284.64L0 284.64L0 0Z" id="path_3" />
    <path d="M0 0L333.604 0L333.604 333.604L0 333.604L0 0Z" id="path_4" />
    <rect width="1022" height="360" id="artboard_1" />
    <clipPath id="clip_1">
      <use xlink:href="#artboard_1" clip-rule="evenodd" />
    </clipPath>
    <clipPath id="mask_1">
      <use xlink:href="#path_1" />
    </clipPath>
    <clipPath id="mask_2">
      <use xlink:href="#path_2" />
    </clipPath>
    <clipPath id="mask_3">
      <use xlink:href="#path_3" />
    </clipPath>
    <clipPath id="mask_4">
      <use xlink:href="#path_4" />
    </clipPath>
  </defs>
  <g id="Pixelbook" clip-path="url(#clip_1)">
    <use xlink:href="#artboard_1" stroke="none" fill="#191919" />
    <g id="right-arrow" transform="translate(719.81464 41.722626)">
      <path d="M0 0L302.185 0L302.185 302.185L0 302.185L0 0Z" id="Background" fill="none" fill-rule="evenodd" stroke="none" />
      <g clip-path="url(#mask_1)">
        <g id="Group" transform="translate(62.327026 0)">
          <g id="Group">
            <path d="M172.711 139.301L38.2347 4.82756C35.1245 1.71483 30.9725 0 26.5454 0C22.1183 0 17.9664 1.71483 14.8561 4.82756L4.95284 14.7283C-1.49127 21.1798 -1.49127 31.6653 4.95284 38.107L117.876 151.03L4.82756 264.078C1.71728 267.191 0 271.341 0 275.765C0 280.195 1.71728 284.344 4.82756 287.46L14.7308 297.358C17.8435 300.471 21.993 302.185 26.4201 302.185C30.8472 302.185 34.9992 300.471 38.1094 297.358L172.711 162.761C175.829 159.639 177.541 155.469 177.531 151.037C177.541 146.588 175.829 142.422 172.711 139.301L172.711 139.301Z" id="Shape" fill="#FFFFFF" fill-rule="evenodd" stroke="none" />
          </g>
        </g>
      </g>
    </g>
    <g id="left-arrow-(1)" transform="translate(4.5776367E-05 41.64817)">
      <path d="M0 0L301.614 0L301.614 301.614L0 301.614L0 0Z" id="Background" fill="none" fill-rule="evenodd" stroke="none" />
      <g clip-path="url(#mask_2)">
        <g id="Group" transform="translate(62.210968 0)">
          <g id="Group">
            <path d="M59.5431 150.871L172.376 38.0328C175.483 34.9333 177.192 30.7892 177.192 26.3704C177.192 21.9492 175.483 17.8075 172.376 14.7031L162.489 4.82092C159.387 1.7116 155.241 2.92319e-07 150.822 2.92319e-07C146.403 2.92319e-07 142.261 1.7116 139.157 4.82092L4.81118 139.164C1.6945 142.279 -0.0121932 146.44 6.54794e-05 150.864C-0.0121932 155.307 1.69205 159.463 4.81118 162.58L139.032 296.793C142.136 299.903 146.278 301.614 150.699 301.614C155.118 301.614 159.26 299.903 162.367 296.793L172.251 286.911C178.683 280.479 178.683 270.009 172.251 263.579L59.5431 150.871L59.5431 150.871Z" id="Shape" fill="#FFFFFF" fill-rule="evenodd" stroke="none" />
          </g>
        </g>
      </g>
    </g>
    <g id="divide-mathematical-sign" transform="translate(255.56216 41.70005)">
      <path d="M0 0L284.638 0L284.638 284.64L0 284.64L0 0Z" id="Background" fill="none" fill-rule="evenodd" stroke="none" />
      <g clip-path="url(#mask_3)">
        <g id="Group" transform="translate(47.433746 0.0013122559)">
          <g id="Group">
            <path d="M155.773 8.72025L2.74227 256.628C-2.58966 265.261 0.0913802 276.573 8.72249 281.898C11.7277 283.752 15.057 284.642 18.3511 284.642C24.5097 284.642 30.5276 281.548 33.9977 275.918L187.028 28.0077C192.358 19.3766 189.679 8.06444 181.046 2.74005C172.417 -2.58687 161.095 0.0891471 155.773 8.72025L155.773 8.72025Z" id="Shape" fill="#FFFFFF" fill-rule="evenodd" stroke="none" />
          </g>
        </g>
      </g>
    </g>
    <g id="flash" transform="translate(437.34073 13.64819)">
      <path d="M0 0L333.604 0L333.604 333.604L0 333.604L0 0Z" id="Background" fill="none" fill-rule="evenodd" stroke="none" />
      <g clip-path="url(#mask_4)">
        <g id="Group" transform="translate(72.11685 2.2888184E-05)">
          <path d="M177.922 111.201L101.749 111.201L172.362 0L83.4009 0L0 166.802L65.6085 166.802L0 322.484L177.922 111.201L177.922 111.201Z" transform="translate(5.8382263 5.559822)" id="Shape" fill="#FFDD09" fill-rule="evenodd" stroke="none" />
          <path d="M105.641 0L83.4009 0L0 166.802L22.24 166.802L105.641 0L105.641 0Z" transform="translate(5.8382263 5.559822)" id="Shape" fill="#FFFFFF" fill-rule="evenodd" stroke="none" />
          <path d="M155.681 0L22.24 158.462L0 211.283L177.921 0L155.681 0L155.681 0Z" transform="translate(0.27838135 116.761246)" id="Shape" fill="#FD9808" fill-rule="evenodd" stroke="none" />
          <path d="M5.83822 333.604C4.72599 333.604 3.61441 333.604 3.05798 333.048C0.834167 331.38 -0.278062 328.6 0.834167 326.376L63.1066 177.922L5.83823 177.922C4.17021 177.922 1.9464 176.81 0.834172 175.142C-0.278057 173.474 -0.278057 171.25 0.834172 169.582L84.2351 2.78025C85.3473 1.11223 87.0153 0 89.2391 0L178.2 0C180.424 0 182.092 1.11223 183.204 2.78025C184.316 4.44827 184.316 6.67207 183.204 8.34009L118.151 111.201L183.76 111.201C185.984 111.201 187.652 112.314 188.764 114.537C189.876 116.761 189.32 118.986 188.208 120.654L10.2858 331.936C9.17426 333.048 7.50624 333.604 5.83822 333.604L5.83822 333.604ZM14.7341 166.802L71.4467 166.802C73.1147 166.802 74.7827 167.914 75.895 169.026C77.0072 170.694 77.0072 172.362 76.4508 174.03L25.298 296.351L172.084 122.321L107.587 122.321C105.363 122.321 103.695 121.209 102.583 119.541C101.47 117.873 101.47 115.649 102.583 113.981L168.192 11.1203L92.5752 11.1203L14.7341 166.802L14.7341 166.802Z" id="Shape" fill="#000000" fill-rule="evenodd" stroke="none" />
        </g>
      </g>
    </g>
  </g>
</svg>