<?xml version="1.0" encoding="utf-8"?>
<svg width="1280px" height="332px" viewbox="0 0 1280 332" version="1.1" xmlns:xlink="http://www.w3.org/1999/xlink" xmlns="http://www.w3.org/2000/svg">
  <defs>
    <path d="M0 0L218 0L218 218L0 218L0 0Z" id="path_1" />
    <rect width="1280" height="332" id="artboard_1" />
    <clipPath id="clip_1">
      <use xlink:href="#artboard_1" clip-rule="evenodd" />
    </clipPath>
    <clipPath id="mask_1">
      <use xlink:href="#path_1" />
    </clipPath>
  </defs>
  <g id="HD" clip-path="url(#clip_1)">
    <g id="CODING-BO-T">
      <path d="M228.041 236.156Q208.741 236.156 192.626 227.085Q176.51 218.014 167.053 201.995Q157.596 185.975 157.596 165.904Q157.596 145.832 167.053 129.813Q176.51 113.794 192.626 104.819Q208.741 95.8445 228.041 95.8445Q247.341 95.8445 263.36 104.819Q279.379 113.793 288.74 129.813Q298.1 145.832 298.1 165.904Q298.1 185.975 288.74 201.995Q279.379 218.014 263.264 227.085Q247.148 236.156 228.041 236.156ZM1045.98 236.156Q1026.68 236.156 1010.56 227.085Q994.444 218.014 984.987 201.995Q975.53 185.975 975.53 165.904Q975.53 145.832 984.987 129.813Q994.444 113.794 1010.56 104.819Q1026.68 95.8445 1045.98 95.8445Q1065.28 95.8445 1081.29 104.819Q1097.31 113.793 1106.67 129.813Q1116.03 145.832 1116.03 165.904Q1116.03 185.975 1106.67 201.995Q1097.31 218.014 1081.2 227.085Q1065.08 236.156 1045.98 236.156ZM12.2675 166.289Q12.2675 146.025 20.47 130.198Q28.6725 114.373 43.9195 105.591Q59.1665 96.8095 79.8175 96.8095Q97.5735 96.8095 111.566 103.468Q125.558 110.126 134.34 122.286Q143.121 134.445 146.016 150.656L100.854 150.656Q97.7665 143.902 92.073 140.138Q86.3795 136.375 79.0455 136.374Q68.2375 136.375 61.965 144.48Q55.6925 152.587 55.6925 166.289Q55.6925 179.993 61.965 188.099Q68.2375 196.204 79.0455 196.204Q86.3795 196.204 92.073 192.441Q97.7665 188.678 100.854 181.923L146.016 181.923Q143.121 198.135 134.34 210.294Q125.558 222.452 111.566 229.111Q97.5735 235.77 79.8175 235.77Q59.1665 235.77 43.9195 226.988Q28.6725 218.207 20.47 202.38Q12.2675 186.555 12.2675 166.289ZM753.194 144.867Q750.685 140.814 746.053 138.594Q741.421 136.374 734.859 136.374Q722.507 136.375 715.753 144.384Q708.997 152.394 708.997 166.289Q708.997 182.309 716.524 190.221Q724.051 198.135 739.684 198.135Q754.545 198.135 763.616 186.169L729.455 186.169L729.455 155.867L799.128 155.867L799.128 198.714Q790.25 213.961 774.617 224.865Q758.984 235.77 735.052 235.77Q713.822 235.77 698.093 226.988Q682.363 218.207 673.968 202.38Q665.572 186.555 665.572 166.289Q665.572 146.025 673.968 130.198Q682.363 114.373 697.996 105.591Q713.629 96.8095 734.667 96.8095Q761.493 96.8095 778.381 109.741Q795.268 122.672 798.356 144.867L753.194 144.867ZM408.014 106.845Q391.898 98.1605 370.475 98.1605L313.54 98.1605L313.54 234.805L370.475 234.805C384.757 234.805 397.27 231.813 408.014 225.83Q424.129 216.855 432.814 201.223Q441.499 185.59 441.499 166.096Q441.499 146.41 432.814 130.97Q424.129 115.531 408.014 106.845ZM499.785 98.1605L499.785 234.805L456.939 234.805L456.939 98.1605L499.785 98.1605ZM607.286 234.805L650.133 234.805L650.133 98.1605L607.286 98.1605L607.286 168.027L561.932 98.1605L519.086 98.1605L519.086 234.805L561.932 234.805L561.932 166.096L607.286 234.805ZM958.064 176.615Q951.212 167.641 938.86 164.746Q949.282 162.043 955.555 153.841Q961.827 145.639 961.827 133.672Q961.827 116.302 949.861 107.231Q937.895 98.1605 917.051 98.1605L847.378 98.1605L847.378 234.805L918.981 234.805C933.778 234.805 945.133 231.556 953.046 225.058Q964.915 215.312 964.915 197.363Q964.915 185.59 958.064 176.615ZM1271.59 132.129L1271.59 98.1605L1156.56 98.1605L1156.56 132.129L1192.46 132.129L1192.46 234.805L1235.31 234.805L1235.31 132.129L1271.59 132.129ZM906.822 151.428L890.224 151.428L890.224 132.129L906.822 132.129Q912.612 132.129 915.411 134.541Q918.209 136.954 918.209 141.971Q918.209 146.797 915.411 149.112Q912.612 151.428 906.822 151.428ZM228.041 196.204Q240.779 196.204 247.727 188.002Q254.675 179.799 254.675 165.904Q254.675 151.815 247.727 143.612Q240.779 135.41 228.041 135.409Q215.11 135.41 208.162 143.612Q201.214 151.815 201.214 165.904Q201.214 179.799 208.162 188.002Q215.11 196.204 228.041 196.204ZM1045.98 196.204Q1058.71 196.204 1065.66 188.002Q1072.61 179.799 1072.61 165.904Q1072.61 151.815 1065.66 143.612Q1058.71 135.41 1045.98 135.409Q1033.04 135.41 1026.1 143.612Q1019.15 151.815 1019.15 165.904Q1019.15 179.799 1026.1 188.002Q1033.04 196.204 1045.98 196.204ZM389.582 188.678Q381.09 196.59 366.615 196.59L356.386 196.59L356.386 135.603L366.615 135.603Q381.09 135.603 389.582 143.516Q398.074 151.428 398.074 166.096Q398.074 180.764 389.582 188.678ZM918.306 198.231Q915.507 200.451 909.717 200.451L890.224 200.451L890.224 181.15L909.717 181.15Q921.104 181.151 921.104 190.993Q921.104 196.012 918.306 198.231Z" />
    </g>
    <g id="flash-(1)" transform="translate(1012 63)">
      <path d="M0 0L218 0L218 218L0 218L0 0Z" id="Background" fill="none" fill-rule="evenodd" stroke="none" />
      <g clip-path="url(#mask_1)">
        <g id="Group" transform="translate(47.12616 1.5258789E-05)">
          <path d="M116.266 72.6668L66.49 72.6668L112.633 0L54.5 0L0 109L42.8732 109L0 210.734L116.266 72.6668L116.266 72.6668Z" transform="translate(3.8151174 3.6331758)" id="Shape" fill="#FFDD09" fill-rule="evenodd" stroke="none" />
          <path d="M69.0332 0L54.5 0L0 109L14.5332 109L69.0332 0L69.0332 0Z" transform="translate(3.8151174 3.6331758)" id="Shape" fill="#FFFFFF" fill-rule="evenodd" stroke="none" />
          <path d="M101.733 0L14.5332 103.55L0 138.067L116.266 0L101.733 0L101.733 0Z" transform="translate(0.18193804 76.29998)" id="Shape" fill="#FD9808" fill-rule="evenodd" stroke="none" />
          <path d="M3.8151 218C3.08829 218 2.36191 218 1.9983 217.637C0.545103 216.547 -0.181705 214.73 0.545103 213.277L41.2383 116.267L3.81511 116.267C2.72511 116.267 1.27192 115.54 0.545107 114.45C-0.181702 113.36 -0.181702 111.907 0.545107 110.817L55.0451 1.81681C55.7719 0.726809 56.8619 0 58.3151 0L116.448 0C117.901 0 118.991 0.726809 119.718 1.81681C120.445 2.90681 120.445 4.36 119.718 5.45L77.2083 72.6668L120.081 72.6668C121.535 72.6668 122.625 73.3936 123.351 74.8468C124.078 76.3 123.715 77.7536 122.988 78.8436L6.72149 216.91C5.9951 217.637 4.90511 218 3.8151 218L3.8151 218ZM9.62828 109L46.6883 109C47.7783 109 48.8683 109.727 49.5951 110.453C50.3219 111.543 50.3219 112.633 49.9583 113.723L16.5315 193.656L112.451 79.9332L70.3046 79.9332C68.8515 79.9332 67.7615 79.2064 67.0346 78.1164C66.3078 77.0264 66.3078 75.5732 67.0346 74.4832L109.908 7.2668L60.4951 7.2668L9.62828 109L9.62828 109Z" id="Shape" fill="#000000" fill-rule="evenodd" stroke="none" />
        </g>
      </g>
    </g>
  </g>
</svg>