<?xml version="1.0" encoding="utf-8"?>
<svg width="1751px" height="360px" viewbox="0 0 1751 360" version="1.1" xmlns:xlink="http://www.w3.org/1999/xlink" xmlns="http://www.w3.org/2000/svg">
  <defs>
    <path d="M0 0L161.441 0L161.441 161.441L0 161.441L0 0Z" id="path_1" />
    <path d="M0 0L161.136 0L161.136 161.136L0 161.136L0 0Z" id="path_2" />
    <path d="M0 0L152.067 0L152.067 152.068L0 152.068L0 0Z" id="path_3" />
    <path d="M0 0L178.227 0L178.227 178.227L0 178.227L0 0Z" id="path_4" />
    <rect width="1751" height="360" id="artboard_1" />
    <clipPath id="clip_1">
      <use xlink:href="#artboard_1" clip-rule="evenodd" />
    </clipPath>
    <clipPath id="mask_1">
      <use xlink:href="#path_1" />
    </clipPath>
    <clipPath id="mask_2">
      <use xlink:href="#path_2" />
    </clipPath>
    <clipPath id="mask_3">
      <use xlink:href="#path_3" />
    </clipPath>
    <clipPath id="mask_4">
      <use xlink:href="#path_4" />
    </clipPath>
  </defs>
  <g id="Pixelbook" clip-path="url(#clip_1)">
    <use xlink:href="#artboard_1" stroke="none" fill="#191919" />
    <g id="right-arrow" transform="translate(384.55847 111.89867)">
      <path d="M0 0L161.441 0L161.441 161.441L0 161.441L0 0Z" id="Background" fill="none" fill-rule="evenodd" stroke="none" />
      <g clip-path="url(#mask_1)">
        <g id="Group" transform="translate(33.297974 0)">
          <g id="Group">
            <path d="M92.2703 74.4213L20.4268 2.57911C18.7651 0.91614 16.547 0 14.1818 0C11.8166 0 9.59846 0.91614 7.93681 2.57911L2.64604 7.86857C-0.796704 11.3153 -0.796704 16.9171 2.64604 20.3585L62.9748 80.6873L2.5791 141.083C0.917452 142.746 0 144.963 0 147.327C0 149.693 0.917452 151.91 2.5791 153.574L7.86988 158.862C9.53284 160.525 11.7497 161.441 14.1149 161.441C16.48 161.441 18.6982 160.525 20.3598 158.862L92.2703 86.9546C93.9359 85.2864 94.8507 83.059 94.8454 80.6912C94.8507 78.3142 93.9359 76.0882 92.2703 74.4213L92.2703 74.4213Z" id="Shape" fill="#FFFFFF" fill-rule="evenodd" stroke="none" />
          </g>
        </g>
      </g>
    </g>
    <g id="left-arrow-(1)" transform="translate(1.5258789E-05 111.85888)">
      <path d="M0 0L161.136 0L161.136 161.136L0 161.136L0 0Z" id="Background" fill="none" fill-rule="evenodd" stroke="none" />
      <g clip-path="url(#mask_2)">
        <g id="Group" transform="translate(33.236008 0)">
          <g id="Group">
            <path d="M31.8107 80.6022L92.0915 20.3189C93.7513 18.663 94.6644 16.449 94.6644 14.0883C94.6644 11.7263 93.7513 9.51359 92.0915 7.85507L86.8093 2.57556C85.1521 0.914416 82.9368 1.5617e-07 80.5761 1.5617e-07C78.2154 1.5617e-07 76.0027 0.914416 74.3442 2.57556L2.57036 74.3481C0.905281 76.0118 -0.00651418 78.235 3.49822e-05 80.5983C-0.00651418 82.9721 0.903972 85.1927 2.57036 86.8577L74.2774 158.561C75.9359 160.222 78.1486 161.136 80.5106 161.136C82.8713 161.136 85.084 160.222 86.7438 158.561L92.0247 153.281C95.4609 149.845 95.4609 144.251 92.0247 140.816L31.8107 80.6022L31.8107 80.6022Z" id="Shape" fill="#FFFFFF" fill-rule="evenodd" stroke="none" />
          </g>
        </g>
      </g>
    </g>
    <g id="divide-mathematical-sign" transform="translate(136.53319 111.886604)">
      <path d="M0 0L152.067 0L152.067 152.068L0 152.068L0 0Z" id="Background" fill="none" fill-rule="evenodd" stroke="none" />
      <g clip-path="url(#mask_3)">
        <g id="Group" transform="translate(25.341326 0.0007019043)">
          <g id="Group">
            <path d="M83.2211 4.65876L1.46505 137.102C-1.38352 141.715 0.0488195 147.758 4.65996 150.603C6.26547 151.594 8.04414 152.069 9.80403 152.069C13.0942 152.069 16.3093 150.416 18.1631 147.408L99.9192 14.963C102.766 10.3519 101.335 4.3084 96.723 1.46386C92.1132 -1.38203 86.0643 0.0476265 83.2211 4.65876L83.2211 4.65876Z" id="Shape" fill="#FFFFFF" fill-rule="evenodd" stroke="none" />
          </g>
        </g>
      </g>
    </g>
    <g id="flash" transform="translate(233.64777 96.899994)">
      <path d="M0 0L178.227 0L178.227 178.227L0 178.227L0 0Z" id="Background" fill="none" fill-rule="evenodd" stroke="none" />
      <g clip-path="url(#mask_4)">
        <g id="Group" transform="translate(38.5282 1.5258789E-05)">
          <path d="M95.0539 59.409L54.3591 59.409L92.0836 0L44.5566 0L0 89.1133L35.0511 89.1133L0 172.286L95.0539 59.409L95.0539 59.409Z" transform="translate(3.1190386 2.970316)" id="Shape" fill="#FFDD09" fill-rule="evenodd" stroke="none" />
          <path d="M56.4383 0L44.5566 0L0 89.1133L11.8817 89.1133L56.4383 0L56.4383 0Z" transform="translate(3.1190386 2.970316)" id="Shape" fill="#FFFFFF" fill-rule="evenodd" stroke="none" />
          <path d="M83.1723 0L11.8817 84.6577L0 112.877L95.0539 0L83.1723 0L83.1723 0Z" transform="translate(0.14872962 62.379303)" id="Shape" fill="#FD9808" fill-rule="evenodd" stroke="none" />
          <path d="M3.11905 178.227C2.52485 178.227 1.93099 178.227 1.63371 177.93C0.445651 177.039 -0.148554 175.553 0.445651 174.365L33.7145 95.0543L3.11905 95.0543C2.22792 95.0543 1.03986 94.4601 0.445654 93.569C-0.148551 92.6778 -0.148551 91.4898 0.445654 90.5986L45.0023 1.48534C45.5965 0.594205 46.4876 0 47.6757 0L95.2027 0C96.3907 0 97.2819 0.594205 97.8761 1.48534C98.4703 2.37647 98.4703 3.56453 97.8761 4.45567L63.1219 59.409L98.173 59.409C99.3611 59.409 100.252 60.0032 100.846 61.1912C101.441 62.3793 101.143 63.5677 100.549 64.4588L5.49517 177.335C4.90132 177.93 4.01019 178.227 3.11905 178.227L3.11905 178.227ZM7.87164 89.1133L38.1702 89.1133C39.0613 89.1133 39.9524 89.7075 40.5466 90.3014C41.1408 91.1925 41.1408 92.0836 40.8435 92.9748L13.5154 158.324L91.935 65.3496L57.4778 65.3496C56.2897 65.3496 55.3986 64.7554 54.8044 63.8643C54.2102 62.9732 54.2102 61.7851 54.8044 60.894L89.8559 5.94099L49.458 5.94099L7.87164 89.1133L7.87164 89.1133Z" id="Shape" fill="#000000" fill-rule="evenodd" stroke="none" />
        </g>
      </g>
    </g>
    <g id="CODING-BOLT" fill="#FFFFFF" transform="translate(600.8 82.899994)">
      <path d="M63.4331 163.056Q81.9775 163.056 96.1445 157.962L96.1445 127.32Q83.4102 133.687 70.9146 133.687Q57.3843 133.687 49.3059 125.768Q41.2275 117.849 41.2275 104.159Q41.2275 90.3901 49.3059 82.3516Q57.3843 74.313 71.3921 74.313Q78.1572 74.313 84.7632 75.9048Q91.3691 77.4966 96.1445 80.3618L96.1445 48.6055Q82.2959 45.0239 67.4922 45.0239Q48.9478 45.0239 34.7012 52.7043Q20.4546 60.3848 12.6548 74.4722Q4.85498 88.5596 4.85498 106.626Q4.85498 123.42 11.8191 136.274Q18.7832 149.127 31.9951 156.092Q45.207 163.056 63.4331 163.056ZM215.052 134.443Q222.454 120.873 222.454 103.682Q222.454 86.5698 215.41 73.0793Q208.366 59.5889 195.433 52.3064Q182.5 45.0239 166.104 45.0239Q149.072 45.0239 135.701 52.6248Q122.33 60.2256 114.928 74.1538Q107.526 88.082 107.526 105.512Q107.526 122.146 114.848 135.319Q122.17 148.491 135.343 155.773Q148.515 163.056 164.592 163.056Q181.067 163.056 194.358 155.534Q207.65 148.013 215.052 134.443ZM632.182 160.151Q644.996 157.246 651.443 153.584L651.443 92.1411L595.173 92.1411L595.173 118.167L617.06 118.167L617.06 134.483Q614.274 135.12 608.385 135.12Q595.73 135.12 588.686 127.081Q581.643 119.042 581.643 104.796Q581.643 89.9126 590.039 81.3965Q598.436 72.8804 612.603 72.8804Q621.199 72.8804 628.441 74.2732Q635.684 75.666 643.563 79.2476L643.563 49.2422Q626.69 45.0239 611.807 45.0239Q591.512 45.0239 576.549 52.3462Q561.586 59.6685 553.348 73.7559Q545.111 87.8433 545.111 105.99Q545.111 133.05 561.427 148.053Q577.743 163.056 607.748 163.056Q619.368 163.056 632.182 160.151ZM929.052 134.443Q936.454 120.873 936.454 103.682Q936.454 86.5698 929.41 73.0793Q922.367 59.5889 909.433 52.3064Q896.5 45.0239 880.104 45.0239Q863.072 45.0239 849.701 52.6248Q836.33 60.2256 828.928 74.1538Q821.526 88.082 821.526 105.512Q821.526 122.146 828.849 135.319Q836.171 148.491 849.343 155.773Q862.515 163.056 878.592 163.056Q895.067 163.056 908.359 155.534Q921.65 148.013 929.052 134.443ZM346.216 102.567Q346.216 119.918 338.933 133.249Q331.651 146.581 318.121 153.823Q304.59 161.066 286.921 161.066L238.61 161.066L238.61 46.9341L285.887 46.9341Q346.216 46.9341 346.216 102.567ZM362.293 46.9341L362.293 161.066L396.676 161.066L396.676 46.9341L362.293 46.9341ZM498.869 161.066L458.597 105.99Q453.821 99.4634 450.797 94.2104L450.479 94.2104Q450.956 102.647 450.956 113.153L450.956 161.066L419.12 161.066L419.12 46.9341L451.593 46.9341L490.194 99.3042Q490.91 100.339 491.945 101.771Q492.979 103.204 494.014 104.716Q495.049 106.229 495.964 107.661Q496.879 109.094 497.357 110.208L497.675 110.208Q497.198 106.706 497.198 98.1104L497.198 46.9341L529.034 46.9341L529.034 161.066L498.869 161.066ZM812.771 126.046Q812.771 142.84 800.992 151.953C793.139 158.028 781.917 161.066 767.326 161.066L715.274 161.066L715.274 46.9341L763.744 46.9341Q809.19 46.9341 809.19 74.5518Q809.19 80.521 806.325 85.4954Q803.459 90.4697 797.61 94.2104Q791.76 97.9512 784.756 99.3042L784.756 99.6226Q792.874 100.578 799.321 104.438Q805.768 108.298 809.27 114.068Q812.771 119.838 812.771 126.046ZM952.611 161.066L952.611 46.9341L986.994 46.9341L986.994 134.165L1026.31 134.165L1026.31 161.066L952.611 161.066ZM1098.5 161.066L1098.5 73.8354L1130.81 73.8354L1130.81 46.9341L1032.04 46.9341L1032.04 73.8354L1063.96 73.8354L1063.96 161.066L1098.5 161.066ZM772.658 80.521Q772.658 69.9355 756.024 69.9355L749.657 69.9355L749.657 91.5044L759.605 91.5044Q765.336 91.5044 768.997 88.4402Q772.658 85.376 772.658 80.521ZM309.684 102.886Q309.684 94.5288 306.302 87.8433Q302.919 81.1577 296.631 77.4966Q290.344 73.8354 281.828 73.8354L272.993 73.8354L272.993 134.165L282.624 134.165Q294.96 134.165 302.322 125.688Q309.684 117.212 309.684 102.886ZM180.589 82.4312Q186.001 90.5493 186.001 104.637Q186.001 113.63 183.375 120.157Q180.749 126.683 175.973 130.185Q171.198 133.687 165.229 133.687Q155.439 133.687 149.748 125.887Q144.058 118.087 144.058 104.159Q144.058 89.9126 149.788 82.1128Q155.519 74.313 165.786 74.313Q175.177 74.313 180.589 82.4312ZM894.59 82.4312Q900.002 90.5493 900.002 104.637Q900.002 113.63 897.375 120.157Q894.749 126.683 889.974 130.185Q885.198 133.687 879.229 133.687Q869.439 133.687 863.749 125.887Q858.058 118.087 858.058 104.159Q858.058 89.9126 863.789 82.1128Q869.519 74.313 879.786 74.313Q889.178 74.313 894.59 82.4312ZM776.24 125.887Q776.24 120.953 772.658 117.769Q769.077 114.585 763.187 114.585L749.657 114.585L749.657 137.905L761.118 137.905Q768.122 137.905 772.181 134.682Q776.24 131.458 776.24 125.887Z" />
    </g>
  </g>
</svg>