<?xml version="1.0" encoding="utf-8"?>
<svg width="1920px" height="900px" viewBox="0 0 1920 900" version="1.1" xmlns:xlink="http://www.w3.org/1999/xlink" xmlns="http://www.w3.org/2000/svg">
  <defs>
    <path d="M0 0L399.007 0L399.007 399.007L0 399.007L0 0Z" id="path_1" />
    <rect width="1920" height="900" id="artboard_1" />
    <clipPath id="clip_1">
      <use xlink:href="#artboard_1" clip-rule="evenodd" />
    </clipPath>
    <clipPath id="mask_1">
      <use xlink:href="#path_1" />
    </clipPath>
  </defs>
  <g id="Artboard" clip-path="url(#clip_1)">
    <use xlink:href="#artboard_1" stroke="none" fill="#1A1B1E" />
    <g id="CODING-BOLT" fill="#FFFFFF">
      <path d="M142.955 425.273L197.432 425.273Q195.307 400.739 183.378 383.545Q171.449 366.352 151.889 357.369Q132.33 348.386 107.409 348.386Q80.75 348.386 59.1136 360.026Q37.4773 371.665 24.7273 394.315Q11.9773 416.966 11.9773 450Q11.9773 482.841 24.4858 505.54Q36.9943 528.239 58.5824 539.926Q80.1705 551.614 107.409 551.614Q129.142 551.614 145.563 544.949Q161.983 538.284 173.139 527.321Q184.295 516.358 190.381 503.366Q196.466 490.375 197.432 477.818L142.955 477.432Q140.926 490.085 132.136 497.474Q123.347 504.864 108.568 504.864Q88.9602 504.864 78.0938 491.051Q67.2273 477.239 67.2273 450Q67.2273 424.21 77.9489 409.673Q88.6705 395.136 108.955 395.136Q124.506 395.136 133.151 403.443Q141.795 411.75 142.955 425.273ZM400.563 505.685Q413.409 483.034 413.409 450Q413.409 416.966 400.563 394.315Q387.716 371.665 365.886 360.026Q344.057 348.386 317.205 348.386Q290.159 348.386 268.378 360.026Q246.597 371.665 233.798 394.315Q221 416.966 221 450Q221 482.841 233.798 505.491Q246.597 528.142 268.378 539.878Q290.159 551.614 317.205 551.614Q344.057 551.614 365.886 539.974Q387.716 528.335 400.563 505.685ZM1031.2 400.69Q1039.41 406.244 1041.83 416.386L1096.11 416.386Q1094.09 396.489 1082.25 381.179Q1070.42 365.869 1051.49 357.128Q1032.56 348.386 1009.18 348.386Q982.523 348.386 960.597 360.267Q938.67 372.148 925.631 394.943Q912.591 417.739 912.591 450.386Q912.591 481.682 924.81 504.381Q937.028 527.08 958.858 539.347Q980.688 551.614 1009.57 551.614Q1035.45 551.614 1055.5 541.423Q1075.54 531.233 1086.99 512.06Q1098.43 492.886 1098.43 465.841L1098.43 438.409L1010.73 438.409L1010.73 476.659L1046.66 476.659Q1046.27 489.602 1037.14 497.233Q1028.02 504.864 1009.95 504.864Q989.091 504.864 978.466 490.278Q967.841 475.693 967.841 449.614Q967.841 423.92 978.949 409.528Q990.057 395.136 1010.34 395.136Q1022.99 395.136 1031.2 400.69ZM1538.02 505.685Q1550.86 483.034 1550.86 450Q1550.86 416.966 1538.02 394.315Q1525.17 371.665 1503.34 360.026Q1481.51 348.386 1454.66 348.386Q1427.61 348.386 1405.83 360.026Q1384.05 371.665 1371.25 394.315Q1358.45 416.966 1358.45 450Q1358.45 482.841 1371.25 505.491Q1384.05 528.142 1405.83 539.878Q1427.61 551.614 1454.66 551.614Q1481.51 551.614 1503.34 539.974Q1525.17 528.335 1538.02 505.685ZM514.25 548.909L438.136 548.909L438.136 351.091L513.477 351.091Q544 351.091 566.264 362.923Q588.528 374.756 600.651 396.923Q612.773 419.091 612.773 450Q612.773 480.909 600.699 503.077Q588.625 525.244 566.506 537.077Q544.386 548.909 514.25 548.909ZM637.5 548.909L691.205 548.909L691.205 351.091L637.5 351.091L637.5 548.909ZM887.864 548.909L843.045 548.909L771.568 444.977L770.409 444.977L770.409 548.909L716.705 548.909L716.705 351.091L762.295 351.091L832.614 454.636L834.159 454.636L834.159 351.091L887.864 351.091L887.864 548.909ZM1177.64 351.091L1263.41 351.091Q1297.31 351.091 1314.94 364.517Q1332.57 377.943 1332.57 400.545Q1332.57 416.869 1322.04 428.653Q1311.51 440.437 1294.32 443.818L1294.32 445.75Q1307.07 446.233 1317.5 452.173Q1327.93 458.114 1334.11 468.497Q1340.3 478.881 1340.3 492.886Q1340.3 509.114 1331.84 521.767Q1323.39 534.42 1307.84 541.665Q1292.29 548.909 1270.75 548.909L1177.64 548.909L1177.64 351.091ZM1575.59 351.091L1629.3 351.091L1629.3 505.636L1709.27 505.636L1709.27 548.909L1575.59 548.909L1575.59 351.091ZM1725.5 351.091L1725.5 394.364L1785 394.364L1785 548.909L1837.93 548.909L1837.93 394.364L1897.43 394.364L1897.43 351.091L1725.5 351.091ZM1231.34 431.068L1253.36 431.068Q1263.99 431.068 1270.65 426.142Q1277.32 421.216 1277.32 412.136Q1277.32 402.96 1270.75 398.082Q1264.18 393.205 1254.14 393.205L1231.34 393.205L1231.34 431.068ZM347.679 409.239Q358.159 423.341 358.159 450Q358.159 476.659 347.679 490.761Q337.199 504.864 317.205 504.864Q297.21 504.864 286.73 490.761Q276.25 476.659 276.25 450Q276.25 423.341 286.73 409.239Q297.21 395.136 317.205 395.136Q337.199 395.136 347.679 409.239ZM1485.13 409.239Q1495.61 423.341 1495.61 450Q1495.61 476.659 1485.13 490.761Q1474.65 504.864 1454.66 504.864Q1434.66 504.864 1424.18 490.761Q1413.7 476.659 1413.7 450Q1413.7 423.341 1424.18 409.239Q1434.66 395.136 1454.66 395.136Q1474.65 395.136 1485.13 409.239ZM491.841 503.318L512.318 503.318Q527 503.318 537.384 498.585Q547.767 493.852 553.224 482.261Q558.682 470.67 558.682 450Q558.682 429.33 553.128 417.739Q547.574 406.148 536.901 401.415Q526.227 396.682 510.773 396.682L491.841 396.682L491.841 503.318ZM1231.34 506.023L1256.45 506.023Q1283.5 506.023 1283.5 485.932Q1283.5 475.5 1276.5 469.898Q1269.49 464.295 1257.23 464.295L1231.34 464.295L1231.34 506.023Z" />
    </g>
    <g id="thunder" transform="translate(904 250)">
      <path d="M0 0L399.007 0L399.007 399.007L0 399.007L0 0Z" id="Background" fill="none" fill-rule="evenodd" stroke="none" />
      <g clip-path="url(#mask_1)">
        <path d="M222.419 155.317C220.124 151.751 216.184 149.631 211.97 149.631L124.688 149.631L124.688 12.4742C124.688 6.58897 120.573 1.5017 114.813 0.279756C108.953 -0.967123 103.217 2.05033 100.823 7.41191L1.07248 231.85C-0.648212 235.691 -0.274145 240.179 2.02011 243.696C4.31437 247.237 8.25451 249.381 12.469 249.381L99.7506 249.381L99.7506 386.538C99.7506 392.423 103.865 397.511 109.626 398.733C110.499 398.907 111.371 399.007 112.219 399.007C117.057 399.007 121.571 396.189 123.616 391.601L223.366 167.162C225.062 163.297 224.738 158.858 222.419 155.317L222.419 155.317Z" transform="translate(87.28534 3.8146973E-06)" id="Shape" fill="#FFC107" fill-rule="evenodd" stroke="none" />
      </g>
    </g>
  </g>
</svg>