<?xml version="1.0" encoding="utf-8"?>
<svg width="2000px" height="2000px" viewBox="0 0 2000 2000" version="1.1" xmlns:xlink="http://www.w3.org/1999/xlink" xmlns="http://www.w3.org/2000/svg">
  <defs>
    <path d="M0 0L920.977 0L920.977 920.977L0 920.977L0 0Z" id="path_1" />
    <rect width="2000" height="2000" id="artboard_1" />
    <clipPath id="clip_1">
      <use xlink:href="#artboard_1" clip-rule="evenodd" />
    </clipPath>
    <clipPath id="mask_1">
      <use xlink:href="#path_1" />
    </clipPath>
  </defs>
  <g id="Artboard" clip-path="url(#clip_1)">
    <use xlink:href="#artboard_1" stroke="none" fill="#1A1B1E" />
    <g id="C" fill="#FFFFFF" transform="matrix(0.99999994 0 0 0.99999994 -53.199768 169.00009)">
      <path d="M1088.78 615.636L788.352 615.636Q781.96 541.063 734.286 495.253Q686.612 449.443 600.852 449.443Q488.991 449.443 429.865 529.61Q370.739 609.777 370.739 752Q370.739 902.213 430.664 978.385Q490.589 1054.56 598.722 1054.56Q680.22 1054.56 728.693 1013.81Q777.166 973.058 788.352 903.278L1088.78 905.409Q1083.45 974.656 1049.89 1046.3Q1016.34 1117.94 954.812 1178.4Q893.288 1238.86 802.734 1275.62Q712.18 1312.37 592.33 1312.37Q442.116 1312.37 323.065 1247.92Q204.013 1183.46 135.032 1058.29Q66.0511 933.108 66.0511 752Q66.0511 569.827 136.364 444.916Q206.676 320.004 325.994 255.818Q445.313 191.631 592.33 191.631Q729.758 191.631 837.624 241.169Q945.49 290.707 1011.27 385.523Q1077.06 480.338 1088.78 615.636Z" />
    </g>
    <g id="B" fill="#FFFFFF" transform="matrix(0.99999994 0 0 0.99999994 1044.0956 4.999878)">
      <path d="M94.8153 1452.95L94.8153 362.045L531.605 362.045Q712.18 362.045 803.001 440.614Q893.821 519.183 893.821 641.698Q893.821 738.111 837.891 797.504Q781.96 856.896 696.733 876.072L696.733 886.726Q759.055 889.389 813.654 921.882Q868.253 954.375 902.344 1012.44Q936.435 1070.5 936.435 1151.46Q936.435 1238.29 893.555 1306.47Q850.675 1374.65 767.045 1413.8C711.293 1439.9 642.578 1452.95 560.902 1452.95L94.8153 1452.95ZM325.462 1264.39L513.494 1264.39Q610.44 1264.39 654.386 1227.1Q698.331 1189.82 698.331 1128.56Q698.331 1060.91 650.124 1017.76Q601.918 974.617 518.821 974.616L325.462 974.616L325.462 1264.39ZM325.462 818.544L496.449 818.544Q567.294 818.544 614.169 781.523Q661.044 744.503 661.044 680.05Q661.044 620.923 619.229 584.702Q577.415 548.48 500.71 548.48L325.462 548.48L325.462 818.544Z" />
    </g>
    <g id="thunder" transform="matrix(0.99999994 0 0 0.99999994 499 461.02325)">
      <path d="M0 0L920.977 0L920.977 920.977L0 920.977L0 0Z" id="Background" fill="none" fill-rule="evenodd" stroke="none" />
      <g clip-path="url(#mask_1)">
        <path d="M513.38 358.498C508.085 350.267 498.99 345.374 489.263 345.374L287.802 345.374L287.802 28.7927C287.802 15.2085 278.304 3.46618 265.008 0.645726C251.481 -2.23229 238.242 4.7325 232.717 17.108L2.47547 535.15C-1.49618 544.015 -0.632774 554.375 4.66277 562.492C9.95832 570.665 19.0528 575.615 28.7805 575.615L230.241 575.615L230.241 892.197C230.241 905.781 239.739 917.523 253.035 920.344C255.05 920.747 257.065 920.977 259.022 920.977C270.188 920.977 280.607 914.473 285.327 903.881L515.568 385.839C519.482 376.917 518.734 366.671 513.38 358.498L513.38 358.498Z" transform="translate(201.46974 0)" id="Shape" fill="#FFC107" fill-rule="evenodd" stroke="none" />
      </g>
    </g>
  </g>
</svg>