<?xml version="1.0" encoding="utf-8"?>
<svg width="1751px" height="360px" viewbox="0 0 1751 360" version="1.1" xmlns:xlink="http://www.w3.org/1999/xlink" xmlns="http://www.w3.org/2000/svg">
  <defs>
    <path d="M0 0L210.469 0L210.469 210.469L0 210.469L0 0Z" id="path_1" />
    <path d="M0 0L210.071 0L210.071 210.071L0 210.071L0 0Z" id="path_2" />
    <path d="M0 0L198.248 0L198.248 198.249L0 198.249L0 0Z" id="path_3" />
    <path d="M0 0L232.352 0L232.352 232.352L0 232.352L0 0Z" id="path_4" />
    <rect width="1751" height="360" id="artboard_1" />
    <clipPath id="clip_1">
      <use xlink:href="#artboard_1" clip-rule="evenodd" />
    </clipPath>
    <clipPath id="mask_1">
      <use xlink:href="#path_1" />
    </clipPath>
    <clipPath id="mask_2">
      <use xlink:href="#path_2" />
    </clipPath>
    <clipPath id="mask_3">
      <use xlink:href="#path_3" />
    </clipPath>
    <clipPath id="mask_4">
      <use xlink:href="#path_4" />
    </clipPath>
  </defs>
  <g id="Pixelbook" clip-path="url(#clip_1)">
    <use xlink:href="#artboard_1" stroke="none" fill="#191919" />
    <g id="right-arrow" transform="translate(501.34415 81.101776)">
      <path d="M0 0L210.469 0L210.469 210.469L0 210.469L0 0Z" id="Background" fill="none" fill-rule="evenodd" stroke="none" />
      <g clip-path="url(#mask_1)">
        <g id="Group" transform="translate(43.410156 0)">
          <g id="Group">
            <path d="M120.292 97.0221L26.6301 3.36235C24.4639 1.19436 21.5721 0 18.4886 0C15.4052 0 12.5134 1.19436 10.3471 3.36235L3.44961 10.2582C-1.03865 14.7516 -1.03865 22.0546 3.44961 26.5412L82.0994 105.191L3.36235 183.928C1.19607 186.096 0 188.986 0 192.068C0 195.153 1.19607 198.043 3.36235 200.213L10.2599 207.107C12.4279 209.275 15.3179 210.469 18.4014 210.469C21.4848 210.469 24.3766 209.275 26.5429 207.107L120.292 113.362C122.463 111.187 123.656 108.283 123.649 105.196C123.656 102.097 122.463 99.1953 120.292 97.0221L120.292 97.0221Z" id="Shape" fill="#FFFFFF" fill-rule="evenodd" stroke="none" />
          </g>
        </g>
      </g>
    </g>
    <g id="left-arrow-(1)" transform="translate(1.5258789E-05 81.04992)">
      <path d="M0 0L210.071 0L210.071 210.071L0 210.071L0 0Z" id="Background" fill="none" fill-rule="evenodd" stroke="none" />
      <g clip-path="url(#mask_2)">
        <g id="Group" transform="translate(43.32936 0)">
          <g id="Group">
            <path d="M41.4712 105.08L120.059 26.4895C122.222 24.3307 123.413 21.4444 123.413 18.3667C123.413 15.2874 122.222 12.4028 120.059 10.2406L113.172 3.35773C111.012 1.19211 108.124 2.03597e-07 105.046 2.03597e-07C101.968 2.03597e-07 99.0838 1.19211 96.9216 3.35773L3.35094 96.9266C1.1802 99.0957 -0.00849245 101.994 4.56058e-05 105.075C-0.00849245 108.17 1.1785 111.065 3.35094 113.235L96.8345 206.714C98.9967 208.879 101.881 210.071 104.961 210.071C108.038 210.071 110.923 208.879 113.087 206.714L119.971 199.831C124.451 195.351 124.451 188.058 119.971 183.58L41.4712 105.08L41.4712 105.08Z" id="Shape" fill="#FFFFFF" fill-rule="evenodd" stroke="none" />
          </g>
        </g>
      </g>
    </g>
    <g id="divide-mathematical-sign" transform="translate(177.99661 81.08605)">
      <path d="M0 0L198.248 0L198.248 198.249L0 198.249L0 0Z" id="Background" fill="none" fill-rule="evenodd" stroke="none" />
      <g clip-path="url(#mask_3)">
        <g id="Group" transform="translate(33.03717 0.00091552734)">
          <g id="Group">
            <path d="M108.494 6.07357L1.90997 178.739C-1.80368 184.752 0.0636454 192.631 6.07513 196.339C8.16821 197.631 10.4871 198.25 12.7814 198.25C17.0708 198.25 21.2622 196.096 23.6791 192.174L130.263 19.5071C133.975 13.4956 132.11 5.61681 126.097 1.90842C120.087 -1.80173 112.201 0.0620901 108.494 6.07357L108.494 6.07357Z" id="Shape" fill="#FFFFFF" fill-rule="evenodd" stroke="none" />
          </g>
        </g>
      </g>
    </g>
    <g id="flash" transform="translate(304.60367 61.548195)">
      <path d="M0 0L232.352 0L232.352 232.352L0 232.352L0 0Z" id="Background" fill="none" fill-rule="evenodd" stroke="none" />
      <g clip-path="url(#mask_4)">
        <g id="Group" transform="translate(50.22873 1.1444092E-05)">
          <path d="M123.921 77.4507L70.8673 77.4507L120.048 0L58.0879 0L0 116.176L45.6957 116.176L0 224.607L123.921 77.4507L123.921 77.4507Z" transform="translate(4.0662565 3.8723636)" id="Shape" fill="#FFDD09" fill-rule="evenodd" stroke="none" />
          <path d="M73.5779 0L58.0879 0L0 116.176L15.49 116.176L73.5779 0L73.5779 0Z" transform="translate(4.0662565 3.8723636)" id="Shape" fill="#FFFFFF" fill-rule="evenodd" stroke="none" />
          <path d="M108.431 0L15.49 110.367L0 147.156L123.921 0L108.431 0L108.431 0Z" transform="translate(0.19389033 81.32312)" id="Shape" fill="#FD9808" fill-rule="evenodd" stroke="none" />
          <path d="M4.06627 232.352C3.29161 232.352 2.51741 232.352 2.12985 231.965C0.58099 230.803 -0.193668 228.867 0.58099 227.318L43.9532 123.921L4.06627 123.921C2.90451 123.921 1.35565 123.146 0.580993 121.985C-0.193664 120.823 -0.193664 119.274 0.580993 118.112L58.6689 1.93642C59.4436 0.774657 60.6054 0 62.1542 0L124.115 0C125.663 0 126.825 0.774657 127.6 1.93642C128.374 3.09818 128.374 4.64704 127.6 5.8088L82.2912 77.4508L127.987 77.4508C129.536 77.4508 130.698 78.2254 131.472 79.7743C132.247 81.3231 131.859 82.8724 131.085 84.0342L7.16399 231.19C6.38979 231.965 5.22803 232.352 4.06627 232.352L4.06627 232.352ZM10.2621 116.176L49.7619 116.176C50.9237 116.176 52.0855 116.951 52.8601 117.725C53.6348 118.887 53.6348 120.048 53.2472 121.21L17.6198 206.406L119.855 85.1955L74.9331 85.1955C73.3842 85.1955 72.2225 84.4208 71.4478 83.2591C70.6731 82.0973 70.6731 80.5485 71.4478 79.3867L117.144 7.7452L64.4777 7.7452L10.2621 116.176L10.2621 116.176Z" id="Shape" fill="#000000" fill-rule="evenodd" stroke="none" />
        </g>
      </g>
    </g>
    <g id="CODING-BOLT" fill="#FFFFFF" transform="translate(711.8 82.899994)">
      <path d="M56.8174 156.896Q73.4277 156.896 86.1172 152.334L86.1172 124.888Q74.7109 130.591 63.5186 130.591Q51.3994 130.591 44.1636 123.498Q36.9277 116.404 36.9277 104.143Q36.9277 91.8096 44.1636 84.6094Q51.3994 77.4092 63.9463 77.4092Q70.0059 77.4092 75.9229 78.835Q81.8398 80.2607 86.1172 82.8271L86.1172 54.3828Q73.7129 51.1748 60.4531 51.1748Q43.8428 51.1748 31.082 58.0542Q18.3213 64.9336 11.335 77.5518Q4.34863 90.1699 4.34863 106.353Q4.34863 121.395 10.5864 132.908Q16.8242 144.421 28.6582 150.659Q40.4922 156.896 56.8174 156.896ZM192.623 131.268Q199.253 119.113 199.253 103.715Q199.253 88.3877 192.944 76.3042Q186.635 64.2207 175.05 57.6978Q163.466 51.1748 148.78 51.1748Q133.524 51.1748 121.548 57.9829Q109.571 64.791 102.941 77.2666Q96.3115 89.7422 96.3115 105.354Q96.3115 120.254 102.87 132.052Q109.429 143.851 121.227 150.374Q133.025 156.896 147.426 156.896Q162.183 156.896 174.088 150.16Q185.993 143.423 192.623 131.268ZM566.249 154.294Q577.727 151.692 583.501 148.413L583.501 93.3779L533.1 93.3779L533.1 116.689L552.704 116.689L552.704 131.304Q550.209 131.874 544.934 131.874Q533.599 131.874 527.29 124.674Q520.98 117.474 520.98 104.713Q520.98 91.3818 528.501 83.7539Q536.022 76.126 548.712 76.126Q556.411 76.126 562.898 77.3735Q569.386 78.6211 576.443 81.8291L576.443 54.9531Q561.33 51.1748 547.999 51.1748Q529.82 51.1748 516.418 57.7334Q503.016 64.292 495.637 76.9102Q488.259 89.5283 488.259 105.782Q488.259 130.021 502.873 143.458Q517.487 156.896 544.363 156.896Q554.771 156.896 566.249 154.294ZM832.157 131.268Q838.787 119.113 838.787 103.715Q838.787 88.3877 832.478 76.3042Q826.169 64.2207 814.584 57.6978Q803 51.1748 788.314 51.1748Q773.059 51.1748 761.082 57.9829Q749.105 64.791 742.476 77.2666Q735.846 89.7422 735.846 105.354Q735.846 120.254 742.404 132.052Q748.963 143.851 760.761 150.374Q772.56 156.896 786.96 156.896Q801.717 156.896 813.622 150.16Q825.527 143.423 832.157 131.268ZM310.107 102.717Q310.107 118.258 303.584 130.199Q297.062 142.14 284.942 148.627Q272.823 155.114 256.997 155.114L213.725 155.114L213.725 52.8857L256.07 52.8857Q310.107 52.8857 310.107 102.717ZM324.508 52.8857L324.508 155.114L355.305 155.114L355.305 52.8857L324.508 52.8857ZM446.84 155.114L410.768 105.782Q406.49 99.9365 403.781 95.2314L403.496 95.2314Q403.924 102.788 403.924 112.198L403.924 155.114L375.408 155.114L375.408 52.8857L404.494 52.8857L439.069 99.7939Q439.711 100.721 440.638 102.004Q441.564 103.287 442.491 104.642Q443.418 105.996 444.238 107.279Q445.058 108.563 445.485 109.561L445.771 109.561Q445.343 106.424 445.343 98.7246L445.343 52.8857L473.858 52.8857L473.858 155.114L446.84 155.114ZM728.004 123.747Q728.004 138.789 717.453 146.952Q706.902 155.114 687.298 155.114L640.675 155.114L640.675 52.8857L684.09 52.8857Q724.796 52.8857 724.796 77.623Q724.796 82.9697 722.229 87.4253Q719.663 91.8809 714.423 95.2314Q709.184 98.582 702.91 99.7939L702.91 100.079Q710.182 100.935 715.956 104.392Q721.73 107.85 724.867 113.018Q728.004 118.187 728.004 123.747ZM853.259 155.114L853.259 52.8857L884.056 52.8857L884.056 131.019L919.272 131.019L919.272 155.114L853.259 155.114ZM983.932 155.114L983.932 76.9814L1012.88 76.9814L1012.88 52.8857L924.405 52.8857L924.405 76.9814L952.992 76.9814L952.992 155.114L983.932 155.114ZM692.074 82.9697Q692.074 73.4883 677.175 73.4883L671.472 73.4883L671.472 92.8076L680.383 92.8076Q685.516 92.8076 688.795 90.063Q692.074 87.3184 692.074 82.9697ZM277.386 103.002Q277.386 95.5166 274.356 89.5283Q271.326 83.54 265.694 80.2607Q260.063 76.9814 252.435 76.9814L244.521 76.9814L244.521 131.019L253.147 131.019Q264.197 131.019 270.792 123.426Q277.386 115.834 277.386 103.002ZM161.755 84.6807Q166.603 91.9521 166.603 104.57Q166.603 112.626 164.25 118.472Q161.897 124.317 157.62 127.454Q153.343 130.591 147.996 130.591Q139.228 130.591 134.13 123.604Q129.033 116.618 129.033 104.143Q129.033 91.3818 134.166 84.3955Q139.299 77.4092 148.495 77.4092Q156.907 77.4092 161.755 84.6807ZM801.289 84.6807Q806.137 91.9521 806.137 104.57Q806.137 112.626 803.784 118.472Q801.432 124.317 797.154 127.454Q792.877 130.591 787.53 130.591Q778.762 130.591 773.665 123.604Q768.567 116.618 768.567 104.143Q768.567 91.3818 773.7 84.3955Q778.833 77.4092 788.029 77.4092Q796.441 77.4092 801.289 84.6807ZM695.282 123.604Q695.282 119.185 692.074 116.333Q688.866 113.481 683.591 113.481L671.472 113.481L671.472 134.369L681.737 134.369Q688.011 134.369 691.646 131.482Q695.282 128.595 695.282 123.604Z" />
    </g>
  </g>
</svg>